{
  "asset": {
    "extras": {
      "author": "Montassar-f (https://sketchfab.com/Montassar-f)",
      "license": "CC-BY-4.0 (http://creativecommons.org/licenses/by/4.0/)",
      "source": "https://sketchfab.com/3d-models/low-poly-trucks-ab758de5c48c45ed8412685928322ad8",
      "title": "Low poly Trucks"
    },
    "generator": "gltfeditor.com",
    "version": "2.0"
  },
  "buffers": [
    {
      "uri": "data:application/octet-stream;base64,",
      "byteLength": 26048
    },
    {
      "uri": "data:application/octet-stream;base64,",
      "byteLength": 124392
    },
    {
      "uri": "data:application/octet-stream;base64,",
      "byteLength": 27680
    },
    {
      "uri": "data:application/octet-stream;base64,",
      "byteLength": 14448
    },
    {
      "uri": "data:application/octet-stream;base64,",
      "byteLength": 80160
    },
    {
      "uri": "data:application/octet-stream;base64,",
      "byteLength": 14944
    },
    {
      "uri": "data:application/octet-stream;base64,",
      "byteLength": 24112
    },
    {
      "uri": "data:application/octet-stream;base64,",
      "byteLength": 3232
    },
    {
      "uri": "data:application/octet-stream;base64,",
      "byteLength": 17184
    }
  ],
  "bufferViews": [
    {
      "buffer": 0,
      "byteOffset": 0,
      "byteLength": 15792,
      "byteStride": 24,
      "target": 34962
    },
    {
      "buffer": 0,
      "byteOffset": 15792,
      "byteLength": 5264,
      "byteStride": 8,
      "target": 34962
    },
    {
      "buffer": 0,
      "byteOffset": 21056,
      "byteLength": 4992,
      "target": 34963
    },
    {
      "buffer": 1,
      "byteOffset": 0,
      "byteLength": 68328,
      "byteStride": 24,
      "target": 34962
    },
    {
      "buffer": 1,
      "byteOffset": 68328,
      "byteLength": 22776,
      "byteStride": 8,
      "target": 34962
    },
    {
      "buffer": 1,
      "byteOffset": 91104,
      "byteLength": 33288,
      "target": 34963
    },
    {
      "buffer": 2,
      "byteOffset": 0,
      "byteLength": 15360,
      "byteStride": 24,
      "target": 34962
    },
    {
      "buffer": 2,
      "byteOffset": 15360,
      "byteLength": 5120,
      "byteStride": 8,
      "target": 34962
    },
    {
      "buffer": 2,
      "byteOffset": 20480,
      "byteLength": 7200,
      "target": 34963
    },
    {
      "buffer": 3,
      "byteOffset": 0,
      "byteLength": 8064,
      "byteStride": 24,
      "target": 34962
    },
    {
      "buffer": 3,
      "byteOffset": 8064,
      "byteLength": 2688,
      "byteStride": 8,
      "target": 34962
    },
    {
      "buffer": 3,
      "byteOffset": 10752,
      "byteLength": 3696,
      "target": 34963
    },
    {
      "buffer": 4,
      "byteOffset": 0,
      "byteLength": 43776,
      "byteStride": 24,
      "target": 34962
    },
    {
      "buffer": 4,
      "byteOffset": 43776,
      "byteLength": 14592,
      "byteStride": 8,
      "target": 34962
    },
    {
      "buffer": 4,
      "byteOffset": 58368,
      "byteLength": 21792,
      "target": 34963
    },
    {
      "buffer": 5,
      "byteOffset": 0,
      "byteLength": 7680,
      "byteStride": 24,
      "target": 34962
    },
    {
      "buffer": 5,
      "byteOffset": 7680,
      "byteLength": 2560,
      "byteStride": 8,
      "target": 34962
    },
    {
      "buffer": 5,
      "byteOffset": 10240,
      "byteLength": 4704,
      "target": 34963
    },
    {
      "buffer": 6,
      "byteOffset": 0,
      "byteLength": 14736,
      "byteStride": 24,
      "target": 34962
    },
    {
      "buffer": 6,
      "byteOffset": 14736,
      "byteLength": 4912,
      "byteStride": 8,
      "target": 34962
    },
    {
      "buffer": 6,
      "byteOffset": 19648,
      "byteLength": 4464,
      "target": 34963
    },
    {
      "buffer": 7,
      "byteOffset": 0,
      "byteLength": 1920,
      "byteStride": 24,
      "target": 34962
    },
    {
      "buffer": 7,
      "byteOffset": 1920,
      "byteLength": 640,
      "byteStride": 8,
      "target": 34962
    },
    {
      "buffer": 7,
      "byteOffset": 2560,
      "byteLength": 672,
      "target": 34963
    },
    {
      "buffer": 8,
      "byteOffset": 0,
      "byteLength": 7992,
      "byteStride": 24,
      "target": 34962
    },
    {
      "buffer": 8,
      "byteOffset": 7992,
      "byteLength": 2664,
      "byteStride": 8,
      "target": 34962
    },
    {
      "buffer": 8,
      "byteOffset": 10656,
      "byteLength": 6528,
      "target": 34963
    }
  ],
  "accessors": [
    {
      "bufferView": 0,
      "byteOffset": 0,
      "componentType": 5126,
      "normalized": false,
      "count": 658,
      "min": [
        -1,
        -1,
        -1
      ],
      "max": [
        1,
        1,
        1
      ],
      "type": "VEC3"
    },
    {
      "bufferView": 0,
      "byteOffset": 12,
      "componentType": 5126,
      "normalized": false,
      "count": 658,
      "min": [
        -7.513867378234863,
        0.33381929993629456,
        0.3432328701019287
      ],
      "max": [
        -5.478333473205566,
        2.4365482330322266,
        5.213518142700195
      ],
      "type": "VEC3"
    },
    {
      "bufferView": 1,
      "byteOffset": 0,
      "componentType": 5126,
      "normalized": false,
      "count": 658,
      "min": [
        0.125,
        0
      ],
      "max": [
        0.875,
        1
      ],
      "type": "VEC2"
    },
    {
      "bufferView": 2,
      "byteOffset": 0,
      "componentType": 5125,
      "normalized": false,
      "count": 1248,
      "min": [
        0
      ],
      "max": [
        657
      ],
      "type": "SCALAR"
    },
    {
      "bufferView": 3,
      "byteOffset": 0,
      "componentType": 5126,
      "normalized": false,
      "count": 2847,
      "min": [
        -1,
        -1,
        -1
      ],
      "max": [
        1,
        1,
        1
      ],
      "type": "VEC3"
    },
    {
      "bufferView": 3,
      "byteOffset": 12,
      "componentType": 5126,
      "normalized": false,
      "count": 2847,
      "min": [
        -7.645131587982178,
        0.1579074263572693,
        0.4179844856262207
      ],
      "max": [
        -5.347069263458252,
        2.261502742767334,
        5.2587738037109375
      ],
      "type": "VEC3"
    },
    {
      "bufferView": 4,
      "byteOffset": 0,
      "componentType": 5126,
      "normalized": false,
      "count": 2847,
      "min": [
        0,
        -1.564621925354004e-7
      ],
      "max": [
        1.0000001192092896,
        1
      ],
      "type": "VEC2"
    },
    {
      "bufferView": 5,
      "byteOffset": 0,
      "componentType": 5125,
      "normalized": false,
      "count": 8322,
      "min": [
        0
      ],
      "max": [
        2846
      ],
      "type": "SCALAR"
    },
    {
      "bufferView": 6,
      "byteOffset": 0,
      "componentType": 5126,
      "normalized": false,
      "count": 640,
      "min": [
        -1,
        -1,
        -1
      ],
      "max": [
        1,
        1,
        1
      ],
      "type": "VEC3"
    },
    {
      "bufferView": 6,
      "byteOffset": 12,
      "componentType": 5126,
      "normalized": false,
      "count": 640,
      "min": [
        -7.321414470672607,
        0.8863721489906311,
        3.817990779876709
      ],
      "max": [
        -5.670786380767822,
        1.799944519996643,
        5.157652854919434
      ],
      "type": "VEC3"
    },
    {
      "bufferView": 7,
      "byteOffset": 0,
      "componentType": 5126,
      "normalized": false,
      "count": 640,
      "min": [
        0.125,
        0
      ],
      "max": [
        0.875,
        1
      ],
      "type": "VEC2"
    },
    {
      "bufferView": 8,
      "byteOffset": 0,
      "componentType": 5125,
      "normalized": false,
      "count": 1800,
      "min": [
        0
      ],
      "max": [
        639
      ],
      "type": "SCALAR"
    },
    {
      "bufferView": 9,
      "byteOffset": 0,
      "componentType": 5126,
      "normalized": false,
      "count": 336,
      "min": [
        -1,
        -1,
        -1
      ],
      "max": [
        1,
        1,
        1
      ],
      "type": "VEC3"
    },
    {
      "bufferView": 9,
      "byteOffset": 12,
      "componentType": 5126,
      "normalized": false,
      "count": 336,
      "min": [
        -7.323835372924805,
        0.4775114357471466,
        4.732193470001221
      ],
      "max": [
        -5.668365478515625,
        2.0483973026275635,
        5.200047969818115
      ],
      "type": "VEC3"
    },
    {
      "bufferView": 10,
      "byteOffset": 0,
      "componentType": 5126,
      "normalized": false,
      "count": 336,
      "min": [
        0.3437499701976776,
        -7.450580596923828e-8
      ],
      "max": [
        0.65625,
        1
      ],
      "type": "VEC2"
    },
    {
      "bufferView": 11,
      "byteOffset": 0,
      "componentType": 5125,
      "normalized": false,
      "count": 924,
      "min": [
        0
      ],
      "max": [
        335
      ],
      "type": "SCALAR"
    },
    {
      "bufferView": 12,
      "byteOffset": 0,
      "componentType": 5126,
      "normalized": false,
      "count": 1824,
      "min": [
        -1,
        -1,
        -1
      ],
      "max": [
        1,
        1,
        1
      ],
      "type": "VEC3"
    },
    {
      "bufferView": 12,
      "byteOffset": 12,
      "componentType": 5126,
      "normalized": false,
      "count": 1824,
      "min": [
        -7.442154407501221,
        0.017226964235305786,
        0.7770835161209106
      ],
      "max": [
        -5.550046443939209,
        0.6652871966362,
        4.781396389007568
      ],
      "type": "VEC3"
    },
    {
      "bufferView": 13,
      "byteOffset": 0,
      "componentType": 5126,
      "normalized": false,
      "count": 1824,
      "min": [
        0.3437499701976776,
        -7.450580596923828e-8
      ],
      "max": [
        0.65625,
        1
      ],
      "type": "VEC2"
    },
    {
      "bufferView": 14,
      "byteOffset": 0,
      "componentType": 5125,
      "normalized": false,
      "count": 5448,
      "min": [
        0
      ],
      "max": [
        1823
      ],
      "type": "SCALAR"
    },
    {
      "bufferView": 15,
      "byteOffset": 0,
      "componentType": 5126,
      "normalized": false,
      "count": 320,
      "min": [
        -0.999853789806366,
        -0.9986094236373901,
        -0.9986093044281006
      ],
      "max": [
        0.9998243451118469,
        0.9986093044281006,
        0.998609185218811
      ],
      "type": "VEC3"
    },
    {
      "bufferView": 15,
      "byteOffset": 12,
      "componentType": 5126,
      "normalized": false,
      "count": 320,
      "min": [
        -7.417245864868164,
        0.20480118691921234,
        0.9646573662757874
      ],
      "max": [
        -5.574954986572266,
        0.4777129888534546,
        4.5938215255737305
      ],
      "type": "VEC3"
    },
    {
      "bufferView": 16,
      "byteOffset": 0,
      "componentType": 5126,
      "normalized": false,
      "count": 320,
      "min": [
        0.3437499701976776,
        0.6874999403953552
      ],
      "max": [
        0.65625,
        1
      ],
      "type": "VEC2"
    },
    {
      "bufferView": 17,
      "byteOffset": 0,
      "componentType": 5125,
      "normalized": false,
      "count": 1176,
      "min": [
        0
      ],
      "max": [
        319
      ],
      "type": "SCALAR"
    },
    {
      "bufferView": 18,
      "byteOffset": 0,
      "componentType": 5126,
      "normalized": false,
      "count": 614,
      "min": [
        -1,
        -1,
        -1
      ],
      "max": [
        1,
        1,
        1
      ],
      "type": "VEC3"
    },
    {
      "bufferView": 18,
      "byteOffset": 12,
      "componentType": 5126,
      "normalized": false,
      "count": 614,
      "min": [
        -7.513755798339844,
        0.34057629108428955,
        0.4012035131454468
      ],
      "max": [
        -5.478333473205566,
        2.376110315322876,
        5.208899021148682
      ],
      "type": "VEC3"
    },
    {
      "bufferView": 19,
      "byteOffset": 0,
      "componentType": 5126,
      "normalized": false,
      "count": 614,
      "min": [
        0,
        0
      ],
      "max": [
        1,
        1
      ],
      "type": "VEC2"
    },
    {
      "bufferView": 20,
      "byteOffset": 0,
      "componentType": 5125,
      "normalized": false,
      "count": 1116,
      "min": [
        0
      ],
      "max": [
        613
      ],
      "type": "SCALAR"
    },
    {
      "bufferView": 21,
      "byteOffset": 0,
      "componentType": 5126,
      "normalized": false,
      "count": 80,
      "min": [
        -1,
        -1,
        -1
      ],
      "max": [
        1,
        0.9359368681907654,
        1
      ],
      "type": "VEC3"
    },
    {
      "bufferView": 21,
      "byteOffset": 12,
      "componentType": 5126,
      "normalized": false,
      "count": 80,
      "min": [
        -7.224526405334473,
        1.9406105279922485,
        4.702132701873779
      ],
      "max": [
        -7.131425857543945,
        2.070788860321045,
        4.7340168952941895
      ],
      "type": "VEC3"
    },
    {
      "bufferView": 22,
      "byteOffset": 0,
      "componentType": 5126,
      "normalized": false,
      "count": 80,
      "min": [
        0.125,
        0
      ],
      "max": [
        0.875,
        1
      ],
      "type": "VEC2"
    },
    {
      "bufferView": 23,
      "byteOffset": 0,
      "componentType": 5125,
      "normalized": false,
      "count": 168,
      "min": [
        0
      ],
      "max": [
        79
      ],
      "type": "SCALAR"
    },
    {
      "bufferView": 24,
      "byteOffset": 0,
      "componentType": 5126,
      "normalized": false,
      "count": 333,
      "min": [
        -0.9999977350234985,
        -0.002185855293646455,
        -6.419220710540685e-8
      ],
      "max": [
        0.9999977350234985,
        0.42315027117729187,
        0.9060612916946411
      ],
      "type": "VEC3"
    },
    {
      "bufferView": 24,
      "byteOffset": 12,
      "componentType": 5126,
      "normalized": false,
      "count": 333,
      "min": [
        -7.33255672454834,
        1.122513771057129,
        3.839893341064453
      ],
      "max": [
        -5.652390956878662,
        1.9301352500915527,
        5.132497787475586
      ],
      "type": "VEC3"
    },
    {
      "bufferView": 25,
      "byteOffset": 0,
      "componentType": 5126,
      "normalized": false,
      "count": 333,
      "min": [
        0,
        0
      ],
      "max": [
        1,
        1
      ],
      "type": "VEC2"
    },
    {
      "bufferView": 26,
      "byteOffset": 0,
      "componentType": 5125,
      "normalized": false,
      "count": 1632,
      "min": [
        0
      ],
      "max": [
        332
      ],
      "type": "SCALAR"
    }
  ],
  "scene": 0,
  "scenes": [
    {
      "nodes": [
        12
      ],
      "name": "Sketchfab_Scene"
    }
  ],
  "nodes": [
    {
      "name": "polySurface14_white_q_0",
      "mesh": 0
    },
    {
      "name": "polySurface14_base_m_0",
      "mesh": 1
    },
    {
      "name": "polySurface14_yellow_0",
      "mesh": 2
    },
    {
      "name": "polySurface14_ORANGE_0",
      "mesh": 3
    },
    {
      "name": "polySurface14_plastic_0",
      "mesh": 4
    },
    {
      "name": "polySurface14_plastic_2_0",
      "mesh": 5
    },
    {
      "name": "polySurface14_red_0",
      "mesh": 6
    },
    {
      "name": "polySurface14_lambert1_0",
      "mesh": 7
    },
    {
      "name": "polySurface14_glasse_0",
      "mesh": 8
    },
    {
      "name": "polySurface14",
      "children": [
        0,
        1,
        2,
        3,
        4,
        5,
        6,
        7,
        8
      ],
      "matrix": [
        1,
        0,
        0,
        0,
        0,
        1,
        0,
        0,
        0,
        0,
        1,
        0,
        6.4800333976745605,
        7.087429295093175e-23,
        -2.565080404281616,
        1
      ]
    },
    {
      "name": "RootNode",
      "children": [
        9
      ]
    },
    {
      "name": "6c4455e7ffb2476390c0e9aa3afb9eff.fbx",
      "children": [
        10
      ],
      "matrix": [
        1,
        0,
        0,
        0,
        0,
        3.422854177870249e-8,
        0.9999999403953552,
        0,
        0,
        -0.9999999403953552,
        3.422854177870249e-8,
        0,
        0,
        0,
        0,
        1
      ]
    },
    {
      "name": "Sketchfab_model",
      "children": [
        11
      ],
      "matrix": [
        1.103929042816162,
        0,
        0,
        0,
        0,
        3.778588109071279e-8,
        -1.103929042816162,
        0,
        0,
        1.103929042816162,
        3.778588109071279e-8,
        0,
        0,
        0,
        0,
        1
      ]
    }
  ],
  "meshes": [
    {
      "primitives": [
        {
          "material": 0,
          "mode": 4,
          "attributes": {
            "NORMAL": 0,
            "POSITION": 1,
            "TEXCOORD_0": 2
          },
          "indices": 3
        }
      ]
    },
    {
      "primitives": [
        {
          "material": 1,
          "mode": 4,
          "attributes": {
            "NORMAL": 4,
            "POSITION": 5,
            "TEXCOORD_0": 6
          },
          "indices": 7
        }
      ]
    },
    {
      "primitives": [
        {
          "material": 2,
          "mode": 4,
          "attributes": {
            "NORMAL": 8,
            "POSITION": 9,
            "TEXCOORD_0": 10
          },
          "indices": 11
        }
      ]
    },
    {
      "primitives": [
        {
          "material": 3,
          "mode": 4,
          "attributes": {
            "NORMAL": 12,
            "POSITION": 13,
            "TEXCOORD_0": 14
          },
          "indices": 15
        }
      ]
    },
    {
      "primitives": [
        {
          "material": 4,
          "mode": 4,
          "attributes": {
            "NORMAL": 16,
            "POSITION": 17,
            "TEXCOORD_0": 18
          },
          "indices": 19
        }
      ]
    },
    {
      "primitives": [
        {
          "material": 5,
          "mode": 4,
          "attributes": {
            "NORMAL": 20,
            "POSITION": 21,
            "TEXCOORD_0": 22
          },
          "indices": 23
        }
      ]
    },
    {
      "primitives": [
        {
          "material": 6,
          "mode": 4,
          "attributes": {
            "NORMAL": 24,
            "POSITION": 25,
            "TEXCOORD_0": 26
          },
          "indices": 27
        }
      ]
    },
    {
      "primitives": [
        {
          "material": 7,
          "mode": 4,
          "attributes": {
            "NORMAL": 28,
            "POSITION": 29,
            "TEXCOORD_0": 30
          },
          "indices": 31
        }
      ]
    },
    {
      "primitives": [
        {
          "material": 8,
          "mode": 4,
          "attributes": {
            "NORMAL": 32,
            "POSITION": 33,
            "TEXCOORD_0": 34
          },
          "indices": 35
        }
      ]
    }
  ],
  "materials": [
    {
      "name": "white_q",
      "pbrMetallicRoughness": {
        "baseColorFactor": [
          0.023529411764705882,
          0.023529411764705882,
          0.023529411764705882,
          1
        ],
        "metallicFactor": 0,
        "roughnessFactor": 0.6
      },
      "emissiveFactor": [
        0,
        0,
        0
      ],
      "alphaMode": "OPAQUE",
      "doubleSided": true
    },
    {
      "name": "base_m",
      "pbrMetallicRoughness": {
        "baseColorFactor": [
          0.0196078431372549,
          0.01568627450980392,
          0.01568627450980392,
          1
        ],
        "metallicFactor": 0,
        "roughnessFactor": 0.03819108768217719
      },
      "emissiveFactor": [
        0,
        0,
        0
      ],
      "alphaMode": "OPAQUE",
      "doubleSided": true
    },
    {
      "name": "yellow",
      "pbrMetallicRoughness": {
        "baseColorFactor": [
          0.6666666666666666,
          0.5647058823529412,
          0.2549019607843137,
          1
        ],
        "metallicFactor": 0,
        "roughnessFactor": 0.6
      },
      "emissiveFactor": [
        0,
        0,
        0
      ],
      "alphaMode": "OPAQUE",
      "doubleSided": true
    },
    {
      "name": "ORANGE",
      "pbrMetallicRoughness": {
        "baseColorFactor": [
          0.8470588235294118,
          0.13333333333333333,
          0.011764705882352941,
          1
        ],
        "metallicFactor": 0,
        "roughnessFactor": 0.6
      },
      "emissiveFactor": [
        0,
        0,
        0
      ],
      "alphaMode": "OPAQUE",
      "doubleSided": true
    },
    {
      "name": "plastic",
      "pbrMetallicRoughness": {
        "baseColorFactor": [
          0.00784313725490196,
          0.00784313725490196,
          0.00784313725490196,
          1
        ],
        "metallicFactor": 0,
        "roughnessFactor": 0.17195489727547442
      },
      "emissiveFactor": [
        0,
        0,
        0
      ],
      "alphaMode": "OPAQUE",
      "doubleSided": true
    },
    {
      "name": "plastic_2",
      "pbrMetallicRoughness": {
        "baseColorFactor": [
          1,
          1,
          1,
          1
        ],
        "metallicFactor": 0,
        "roughnessFactor": 0.6
      },
      "emissiveFactor": [
        0,
        0,
        0
      ],
      "alphaMode": "OPAQUE",
      "doubleSided": true
    },
    {
      "name": "material",
      "pbrMetallicRoughness": {
        "baseColorFactor": [
          1,
          0.26666666666666666,
          0.027450980392156862,
          1
        ],
        "metallicFactor": 0,
        "roughnessFactor": 0.6
      },
      "emissiveFactor": [
        0,
        0,
        0
      ],
      "alphaMode": "OPAQUE",
      "doubleSided": true
    },
    {
      "name": "lambert1",
      "pbrMetallicRoughness": {
        "baseColorFactor": [
          0.5019607843137255,
          0.5019607843137255,
          0.5019607843137255,
          1
        ],
        "metallicFactor": 0,
        "roughnessFactor": 0.6218877113620196
      },
      "emissiveFactor": [
        0,
        0,
        0
      ],
      "alphaMode": "OPAQUE",
      "doubleSided": true
    },
    {
      "name": "glasse",
      "pbrMetallicRoughness": {
        "baseColorFactor": [
          1,
          1,
          1,
          0.1658747241121427
        ],
        "metallicFactor": 0,
        "roughnessFactor": 0.6
      },
      "emissiveFactor": [
        0,
        0,
        0
      ],
      "alphaMode": "BLEND",
      "doubleSided": true
    }
  ]
}