<svg xlink="http://www.w3.org/1999/xlink" viewBox="0 0 5000 5000" xmlns="http://www.w3.org/2000/svg" style="transform: scale(1.08);"><defs><filter id="goo"><feGaussianBlur in="SourceGraphic" stdDeviation="0" result="blur"></feGaussianBlur><feColorMatrix in="blur" type="matrix" values="1 0 0 0 0 0 1 0 0 0 0 0 1 0 0 0 0 0 19 -9" result="good"></feColorMatrix><feComposite in="SourceGraphic" in2="goo" operator="atop"></feComposite></filter><path d="M290,250L225,281Q190,250 223,221C242,230 250,229 267,214C281,221 289,234 290,250z" id="P0"></path><path d="M259,234L268,250L234,259L235,240L259,234z" id="P1"></path><path d="M277,231C268,252 262,264 246,283L217,250L256,218Q277,208 277,231z" id="P2"></path><path d="M245,237L263,256L251,264L236,252L245,237z" id="P3"></path><path d="M261,269C247,262 240,257 229,245C242,241 249,238 262,231C258,242 259,243 270,242C274,253 269,264 261,269z" id="P4"></path><path d="M245,232L269,251L268,257L233,259L245,232z" id="P5"></path><path d="M228,227C253,232 267,242 279,264L269,276L218,250L228,227z" id="P6"></path><path d="M252,233L266,255L234,255L241,236L252,233z" id="P7"></path></defs><rect id="RECT" width="5000" height="5000" fill="#FFFFFF"></rect><g id="group" fill="#FFC0A3" filter="" opacity="0.8"><use x="-247" y="-88" href="#P6"></use><use x="-206" y="553" href="#P0"></use><use x="83" y="757" href="#P0"></use><use x="17" y="1263" href="#P7"></use><use x="-230" y="1478" href="#P2"></use><use x="-201" y="2160" href="#P7"></use><use x="43" y="2704" href="#P1"></use><use x="164" y="3022" href="#P7"></use><use x="58" y="3240" href="#P7"></use><use x="-226" y="3598" href="#P2"></use><use x="88" y="4100" href="#P6"></use><use x="-14" y="4428" href="#P6"></use><use x="100" y="4855" href="#P5"></use><use x="-188" y="5480" href="#P0"></use><use x="197" y="-6" href="#P7"></use><use x="589" y="176" href="#P4"></use><use x="359" y="830" href="#P5"></use><use x="555" y="1212" href="#P4"></use><use x="266" y="1576" href="#P0"></use><use x="531" y="2094" href="#P3"></use><use x="190" y="2502" href="#P7"></use><use x="314" y="2718" href="#P0"></use><use x="396" y="3198" href="#P5"></use><use x="386" y="3660" href="#P4"></use><use x="585" y="4376" href="#P1"></use><use x="549" y="4471" href="#P7"></use><use x="247" y="4858" href="#P3"></use><use x="342" y="5483" href="#P6"></use><use x="619" y="25" href="#P1"></use><use x="862" y="389" href="#P4"></use><use x="743" y="924" href="#P5"></use><use x="615" y="1089" href="#P1"></use><use x="978" y="1763" href="#P4"></use><use x="733" y="2232" href="#P2"></use><use x="621" y="2602" href="#P7"></use><use x="810" y="3051" href="#P3"></use><use x="597" y="3188" href="#P4"></use><use x="767" y="3714" href="#P3"></use><use x="737" y="4280" href="#P4"></use><use x="998" y="4545" href="#P1"></use><use x="803" y="5090" href="#P0"></use><use x="937" y="5364" href="#P5"></use><use x="1128" y="159" href="#P0"></use><use x="1184" y="315" href="#P0"></use><use x="1379" y="851" href="#P1"></use><use x="1024" y="1386" href="#P7"></use><use x="1300" y="1600" href="#P2"></use><use x="1256" y="2229" href="#P2"></use><use x="1184" y="2513" href="#P1"></use><use x="1186" y="2972" href="#P0"></use><use x="1250" y="3518" href="#P2"></use><use x="1207" y="3770" href="#P5"></use><use x="1361" y="4391" href="#P6"></use><use x="1243" y="4416" href="#P1"></use><use x="1440" y="4857" href="#P2"></use><use x="1270" y="5442" href="#P0"></use><use x="1644" y="-1" href="#P2"></use><use x="1638" y="280" href="#P1"></use><use x="1529" y="596" href="#P3"></use><use x="1813" y="1293" href="#P5"></use><use x="1459" y="1807" href="#P5"></use><use x="1536" y="1901" href="#P2"></use><use x="1772" y="2665" href="#P2"></use><use x="1686" y="2949" href="#P4"></use><use x="1773" y="3174" href="#P6"></use><use x="1705" y="3924" href="#P6"></use><use x="1738" y="4057" href="#P6"></use><use x="1569" y="4761" href="#P2"></use><use x="1804" y="5226" href="#P6"></use><use x="1555" y="5412" href="#P0"></use><use x="2119" y="-249" href="#P3"></use><use x="1997" y="335" href="#P5"></use><use x="2067" y="912" href="#P6"></use><use x="2274" y="1265" href="#P7"></use><use x="1960" y="1560" href="#P4"></use><use x="2232" y="2073" href="#P3"></use><use x="1924" y="2593" href="#P3"></use><use x="2175" y="2822" href="#P2"></use><use x="2210" y="3409" href="#P6"></use><use x="2109" y="3610" href="#P6"></use><use x="1958" y="4165" href="#P6"></use><use x="2105" y="4818" href="#P7"></use><use x="1913" y="4821" href="#P6"></use><use x="2140" y="5363" href="#P0"></use><use x="2678" y="-227" href="#P0"></use><use x="2544" y="470" href="#P2"></use><use x="2569" y="1010" href="#P3"></use><use x="2376" y="1157" href="#P6"></use><use x="2669" y="1777" href="#P6"></use><use x="2554" y="2087" href="#P5"></use><use x="2622" y="2371" href="#P7"></use><use x="2568" y="3012" href="#P0"></use><use x="2589" y="3321" href="#P2"></use><use x="2603" y="3945" href="#P0"></use><use x="2319" y="4325" href="#P6"></use><use x="2477" y="4720" href="#P1"></use><use x="2481" y="4966" href="#P2"></use><use x="2345" y="5323" href="#P5"></use><use x="2804" y="-95" href="#P5"></use><use x="2972" y="340" href="#P5"></use><use x="2824" y="667" href="#P2"></use><use x="2986" y="1392" href="#P5"></use><use x="3061" y="1547" href="#P6"></use><use x="3088" y="1944" href="#P0"></use><use x="2825" y="2639" href="#P6"></use><use x="2942" y="2954" href="#P7"></use><use x="2724" y="3286" href="#P1"></use><use x="2831" y="3942" href="#P1"></use><use x="3106" y="4343" href="#P5"></use><use x="2876" y="4685" href="#P7"></use><use x="2982" y="4954" href="#P6"></use><use x="2838" y="5273" href="#P0"></use><use x="3232" y="-221" href="#P6"></use><use x="3549" y="297" href="#P1"></use><use x="3236" y="921" href="#P1"></use><use x="3473" y="1188" href="#P5"></use><use x="3262" y="1771" href="#P5"></use><use x="3417" y="2088" href="#P5"></use><use x="3488" y="2382" href="#P5"></use><use x="3366" y="2739" href="#P2"></use><use x="3187" y="3440" href="#P3"></use><use x="3346" y="3632" href="#P5"></use><use x="3192" y="4084" href="#P5"></use><use x="3323" y="4559" href="#P0"></use><use x="3174" y="5170" href="#P3"></use><use x="3460" y="5351" href="#P5"></use><use x="3558" y="-44" href="#P5"></use><use x="3894" y="193" href="#P4"></use><use x="3686" y="725" href="#P5"></use><use x="3628" y="1089" href="#P3"></use><use x="3968" y="1630" href="#P1"></use><use x="3671" y="2090" href="#P6"></use><use x="3773" y="2674" href="#P7"></use><use x="3802" y="2744" href="#P1"></use><use x="3636" y="3168" href="#P4"></use><use x="3704" y="3743" href="#P4"></use><use x="3580" y="4038" href="#P4"></use><use x="3867" y="4468" href="#P3"></use><use x="3855" y="5007" href="#P2"></use><use x="3830" y="5384" href="#P3"></use><use x="4225" y="-24" href="#P5"></use><use x="4132" y="556" href="#P7"></use><use x="4256" y="781" href="#P4"></use><use x="4195" y="1305" href="#P1"></use><use x="4372" y="1455" href="#P1"></use><use x="4403" y="2138" href="#P3"></use><use x="4262" y="2662" href="#P2"></use><use x="4111" y="2971" href="#P6"></use><use x="4379" y="3154" href="#P3"></use><use x="4110" y="3719" href="#P2"></use><use x="4151" y="4179" href="#P2"></use><use x="4309" y="4737" href="#P3"></use><use x="4119" y="5037" href="#P6"></use><use x="4062" y="5323" href="#P7"></use><use x="4416" y="152" href="#P7"></use><use x="4706" y="236" href="#P3"></use><use x="4580" y="978" href="#P4"></use><use x="4779" y="1146" href="#P2"></use><use x="4639" y="1516" href="#P2"></use><use x="4438" y="2264" href="#P3"></use><use x="4483" y="2471" href="#P4"></use><use x="4705" y="2792" href="#P6"></use><use x="4716" y="3416" href="#P4"></use><use x="4657" y="3884" href="#P1"></use><use x="4592" y="4307" href="#P4"></use><use x="4615" y="4745" href="#P5"></use><use x="4691" y="4857" href="#P0"></use><use x="4509" y="5532" href="#P6"></use><use x="5089" y="106" href="#P4"></use><use x="4986" y="238" href="#P0"></use><use x="5197" y="980" href="#P5"></use><use x="4944" y="1037" href="#P1"></use><use x="4860" y="1452" href="#P4"></use><use x="4981" y="1994" href="#P7"></use><use x="4829" y="2659" href="#P5"></use><use x="5230" y="2862" href="#P6"></use><use x="5118" y="3369" href="#P3"></use><use x="5249" y="3854" href="#P1"></use><use x="4895" y="4224" href="#P4"></use><use x="4993" y="4497" href="#P4"></use><use x="4926" y="5083" href="#P1"></use><use x="5104" y="5243" href="#P3"></use></g></svg>